<svg width="18" height="18" viewBox="0 0 18 18" fill="none" xmlns="http://www.w3.org/2000/svg">
<path fill-rule="evenodd" clip-rule="evenodd" d="M7.19363 11.405C9.96038 11.405 12.3251 11.8243 12.3251 13.499C12.3251 15.1738 9.97613 15.605 7.19363 15.605C4.42613 15.605 2.06213 15.1895 2.06213 13.514C2.06213 11.8385 4.41038 11.405 7.19363 11.405Z" stroke="#5C635A" stroke-width="1.3" stroke-linecap="round" stroke-linejoin="round"/>
<path fill-rule="evenodd" clip-rule="evenodd" d="M7.19364 9.01476C5.37714 9.01476 3.90414 7.54251 3.90414 5.72601C3.90414 3.90951 5.37714 2.43726 7.19364 2.43726C9.00939 2.43726 10.4824 3.90951 10.4824 5.72601C10.4891 7.53576 9.02664 9.00801 7.21689 9.01476H7.19364Z" stroke="#5C635A" stroke-width="1.3" stroke-linecap="round" stroke-linejoin="round"/>
<path d="M12.3623 8.16121C13.5631 7.99246 14.4878 6.96195 14.4901 5.7147C14.4901 4.48545 13.5938 3.46546 12.4186 3.27271" stroke="#5C635A" stroke-width="1.3" stroke-linecap="round" stroke-linejoin="round"/>
<path d="M13.9466 11.0491C15.1098 11.2223 15.9221 11.6303 15.9221 12.4703C15.9221 13.0486 15.5396 13.4236 14.9216 13.6583" stroke="#5C635A" stroke-width="1.3" stroke-linecap="round" stroke-linejoin="round"/>
</svg>
