<svg width="23" height="24" viewBox="0 0 23 24" fill="none" xmlns="http://www.w3.org/2000/svg">
<path d="M2.01294 7.22495C2.70709 5.77844 3.68785 4.55585 4.92388 3.53926C6.59879 2.15544 8.52001 1.32247 10.6741 1.0672C13.2044 0.767148 15.5824 1.24633 17.7813 2.56297C18.3276 2.88989 18.8382 3.2616 19.3263 3.66465C19.4472 3.76318 19.4338 3.82139 19.3308 3.91992C18.3321 4.91412 17.3334 5.90831 16.3437 6.91147C16.2273 7.02791 16.1646 7.01895 16.0392 6.9249C13.1372 4.6902 8.90515 5.29478 6.7421 8.2505C6.36143 8.76999 6.05243 9.32979 5.83747 9.93884C5.81955 9.99259 5.78372 10.0418 5.75685 10.0956C5.17915 9.65671 4.59696 9.21783 4.02373 8.77447C3.35197 8.25946 2.68022 7.74444 2.01294 7.22495Z" fill="#E94335"/>
<path d="M5.75682 14.2961C5.94939 14.7216 6.11061 15.1649 6.35244 15.5635C7.36903 17.2295 8.82002 18.2998 10.7323 18.6805C12.4565 19.0253 14.1135 18.7924 15.6585 17.9281C15.7122 17.9012 15.766 17.8744 15.8152 17.8475C15.8421 17.8744 15.8645 17.9057 15.8914 17.9281C17.0468 18.8238 18.2067 19.7194 19.3621 20.6151C18.8068 21.166 18.1753 21.6093 17.5036 21.9945C15.5555 23.1051 13.4462 23.5529 11.2249 23.3828C8.45727 23.1678 6.0703 22.0751 4.09982 20.1046C3.2355 19.2403 2.52344 18.264 2.00842 17.1489C2.48761 16.7816 2.96679 16.4189 3.44598 16.0517C4.21626 15.465 4.98654 14.8828 5.75682 14.2961Z" fill="#34A853"/>
<path d="M19.3669 20.6153C18.2115 19.7196 17.0516 18.8239 15.8962 17.9283C15.8693 17.9059 15.8425 17.8745 15.8201 17.8477C16.2186 17.5386 16.6262 17.2386 16.9531 16.8445C17.4994 16.1907 17.8622 15.4517 18.0503 14.6232C18.0727 14.5202 18.0548 14.4844 17.9518 14.4889C17.898 14.4934 17.8488 14.4889 17.795 14.4889C15.9678 14.4889 14.1362 14.4844 12.309 14.4934C12.1075 14.4934 12.0627 14.4396 12.0672 14.247C12.0761 12.9483 12.0761 11.6496 12.0672 10.3509C12.0672 10.1852 12.112 10.1404 12.2777 10.1404C15.6275 10.1449 18.9773 10.1449 22.3316 10.1404C22.4749 10.1404 22.5331 10.1762 22.569 10.3285C22.8421 11.56 22.8242 12.7961 22.6585 14.041C22.5242 15.0352 22.2823 15.9981 21.9106 16.9296C21.3598 18.3044 20.5492 19.5046 19.4834 20.5347C19.4431 20.566 19.4028 20.5884 19.3669 20.6153Z" fill="#4285F3"/>
<path d="M5.75737 14.2961C4.98709 14.8828 4.21681 15.465 3.44653 16.0516C2.96734 16.4144 2.48816 16.7816 2.00897 17.1488C1.63727 16.4592 1.39544 15.7292 1.19839 14.9768C0.822205 13.5214 0.763987 12.0435 0.969991 10.5612C1.13121 9.39678 1.46709 8.27719 2.00897 7.22925C2.68073 7.74426 3.348 8.26375 4.01976 8.77876C4.59747 9.22212 5.17518 9.661 5.75289 10.0999C5.65436 10.5791 5.51553 11.0493 5.47075 11.5419C5.39014 12.4376 5.47523 13.3109 5.7305 14.1707C5.74841 14.2065 5.75289 14.2513 5.75737 14.2961Z" fill="#FABB06"/>
</svg>
