<svg width="14" height="14" viewBox="0 0 14 14" fill="none" xmlns="http://www.w3.org/2000/svg">
<path d="M6.9962 1.16675C9.71609 1.16675 11.9584 3.33552 11.9584 6.01877C11.9584 7.3709 11.4666 8.6262 10.6572 9.69017C9.76432 10.8638 8.66378 11.8864 7.425 12.689C7.14149 12.8745 6.88561 12.8885 6.57445 12.689C5.32862 11.8864 4.22807 10.8638 3.34281 9.69017C2.53284 8.6262 2.04169 7.3709 2.04169 6.01877C2.04169 3.33552 4.28395 1.16675 6.9962 1.16675ZM6.9962 4.53657C6.09682 4.53657 5.36332 5.27796 5.36332 6.16985C5.36332 7.06874 6.09682 7.77572 6.9962 7.77572C7.89616 7.77572 8.63672 7.06874 8.63672 6.16985C8.63672 5.27796 7.89616 4.53657 6.9962 4.53657Z" fill="#5C635A"/>
</svg>
